<svg width="17" height="17" viewBox="0 0 17 17" fill="none" xmlns="http://www.w3.org/2000/svg">
    <path fill-rule="evenodd" clip-rule="evenodd" d="M6.988.5a1.5 1.5 0 0 0-1.412.993l-.38 1.06.036.013H.5a.5.5 0 1 0 0 1h1.095l1.141 12.075a1.5 1.5 0 0 0 1.494 1.36h7.859a1.5 1.5 0 0 0 1.491-1.338L14.9 3.566H16a.5.5 0 0 0 0-1h-4.81l.1-.044-.488-1.121A1.5 1.5 0 0 0 9.427.5h-2.44zm3.231 2.066H6.253l.264-.735a.5.5 0 0 1 .47-.331h2.44a.5.5 0 0 1 .458.3l.334.766zM3.732 15.547 2.6 3.567h11.293l-1.307 11.987a.5.5 0 0 1-.497.446h-7.86a.5.5 0 0 1-.497-.453zM8.75 5.65a.5.5 0 0 0-1 0v8.267a.5.5 0 0 0 1 0V5.65zm-3.475-.487a.5.5 0 0 1 .53.468l.517 8.242a.5.5 0 0 1-.998.062l-.517-8.242a.5.5 0 0 1 .468-.53zm5.42.468a.5.5 0 0 1 .998.062l-.517 8.242a.5.5 0 1 1-.998-.062l.517-8.242z" fill="#000"/>
</svg>