<svg width="17px" height="auto" version="1.1" id="Layer_1" xmlns="http://www.w3.org/2000/svg" xmlns:xlink="http://www.w3.org/1999/xlink" x="0px" y="0px"
	 viewBox="0 0 22 22" style="enable-background:new 0 0 22 22;" xml:space="preserve">
<path d="M6.5,0C2.9,0,0,2.9,0,6.5v9.1C0,19.1,2.9,22,6.5,22h9.1c3.6,0,6.5-2.9,6.5-6.5V6.5C22,2.9,19.1,0,15.5,0H6.5z M6.5,2h9.1
	C18,2,20,4,20,6.5v9.1c0,2.5-2,4.5-4.5,4.5H6.5C4,20,2,18,2,15.5V6.5C2,4,4,2,6.5,2z M16.9,4.2c-0.5,0-0.9,0.4-0.9,0.9
	S16.4,6,16.9,6s0.9-0.4,0.9-0.9S17.4,4.2,16.9,4.2z M11,5c-3.3,0-6,2.7-6,6s2.7,6,6,6s6-2.7,6-6S14.3,5,11,5z M11,7c2.2,0,4,1.8,4,4
	s-1.8,4-4,4s-4-1.8-4-4S8.8,7,11,7z"/>
</svg>
