<?xml version="1.0" encoding="utf-8"?>
<!-- Generator: Adobe Illustrator 24.1.2, SVG Export Plug-In . SVG Version: 6.00 Build 0)  -->
<svg version="1.1" id="Layer_1" xmlns="http://www.w3.org/2000/svg" xmlns:xlink="http://www.w3.org/1999/xlink" x="0px" y="0px"
	 viewBox="0 0 168.1 44.3" style="enable-background:new 0 0 168.1 44.3;" xml:space="preserve">
<style type="text/css">
	.st0{fill:#0070E0;}
	.st1{fill:#003087;}
	.st2{fill:#001C64;}
</style>
<path class="st0" d="M162,9.4l-4,25.2c-0.1,0.4,0.2,0.7,0.5,0.7c0,0,0.1,0,0.1,0h4.7c0.3,0,0.6-0.2,0.7-0.6l4-25.2
	c0.1-0.4-0.2-0.7-0.5-0.7c0,0-0.1,0-0.1,0h-4.7C162.4,8.9,162.1,9.1,162,9.4z M156.9,16.8h-4.5c-0.3,0-0.6,0.2-0.7,0.6l-0.1,0.9
	c0,0-3.5-3.8-9.7-1.2c-3.6,1.5-5.3,4.5-6,6.7c0,0-2.3,6.8,2.9,10.5c0,0,4.8,3.6,10.3-0.2l-0.1,0.6c0,0.3,0.1,0.6,0.4,0.7
	c0.1,0,0.2,0.1,0.3,0.1h4.5c0.3,0,0.6-0.2,0.7-0.6l2.7-17.3c0-0.2,0-0.4-0.1-0.5C157.3,16.9,157.1,16.8,156.9,16.8L156.9,16.8z
	 M150.3,26.3c-0.2,1.2-0.8,2.3-1.7,3.1c-0.9,0.8-2.1,1.2-3.3,1.2c-0.5,0-1-0.1-1.4-0.2c-1.9-0.6-3.1-2.5-2.7-4.5
	c0.2-1.2,0.8-2.3,1.7-3.1c0.9-0.8,2.1-1.2,3.3-1.2c0.5,0,1,0.1,1.4,0.2C149.5,22.5,150.6,24.3,150.3,26.3L150.3,26.3L150.3,26.3z
	 M126.3,26.8c2.4,0,4.8-0.9,6.7-2.4c1.9-1.6,3.1-3.8,3.5-6.2c0.8-5-3.1-9.4-8.7-9.4h-9c-0.3,0-0.6,0.2-0.7,0.6l-4,25.2
	c0,0.3,0.1,0.6,0.4,0.7c0.1,0,0.2,0.1,0.3,0.1h4.8c0.3,0,0.6-0.2,0.7-0.6l1.2-7.4c0.1-0.3,0.4-0.6,0.7-0.6L126.3,26.8L126.3,26.8z
	 M130.2,18c-0.3,1.8-1.7,3.2-4.5,3.2h-3.5l1.1-6.7h3.5C129.6,14.5,130.5,16.1,130.2,18C130.2,18,130.2,18,130.2,18z"/>
<path class="st1" d="M108.6,17.2l-5.4,9.1l-2.8-9c-0.1-0.3-0.4-0.5-0.7-0.5h-4.9c-0.3,0-0.5,0.2-0.5,0.4c0,0.1,0,0.2,0,0.2l4.9,15.2
	l-4.5,7.2c-0.2,0.2-0.1,0.6,0.2,0.7c0,0,0,0,0,0c0.1,0,0.2,0.1,0.3,0.1h5.3c0.3,0,0.6-0.2,0.8-0.4l13.8-22.7c0.1-0.2,0.1-0.4,0-0.5
	c-0.1-0.2-0.3-0.3-0.5-0.3h-5.3C109,16.8,108.7,17,108.6,17.2z M92,16.8h-4.5c-0.3,0-0.6,0.2-0.7,0.6l-0.1,0.9c0,0-3.5-3.8-9.7-1.2
	c-3.6,1.5-5.3,4.5-6,6.7c0,0-2.3,6.8,2.9,10.5c0,0,4.8,3.6,10.3-0.2l-0.1,0.6c0,0.3,0.1,0.6,0.4,0.7c0.1,0,0.2,0.1,0.3,0.1h4.5
	c0.3,0,0.6-0.2,0.7-0.6l2.7-17.3c0-0.3-0.1-0.6-0.4-0.7C92.2,16.8,92.1,16.8,92,16.8L92,16.8z M85.4,26.3c-0.2,1.2-0.8,2.3-1.7,3.1
	c-0.9,0.8-2.1,1.2-3.3,1.2c-0.5,0-1-0.1-1.4-0.2c-1.9-0.6-3.1-2.5-2.7-4.5c0.2-1.2,0.8-2.3,1.7-3.1c0.9-0.8,2.1-1.2,3.4-1.2
	c0.5,0,1,0.1,1.4,0.2C84.6,22.5,85.7,24.3,85.4,26.3L85.4,26.3L85.4,26.3z M61.3,26.8c2.4,0,4.8-0.9,6.7-2.4
	c1.9-1.6,3.1-3.8,3.5-6.2c0.8-5-3.1-9.4-8.7-9.4h-9c-0.3,0-0.6,0.2-0.7,0.6l-4,25.2c0,0.3,0.1,0.6,0.4,0.7c0.1,0,0.2,0.1,0.3,0.1
	h4.7c0.3,0,0.6-0.2,0.7-0.6l1.2-7.4c0.1-0.3,0.4-0.6,0.7-0.6L61.3,26.8L61.3,26.8z M65.3,18c-0.3,1.8-1.7,3.2-4.5,3.2h-3.5l1.1-6.7
	h3.5C64.7,14.5,65.6,16.2,65.3,18C65.3,18,65.3,18,65.3,18z"/>
<path class="st2" d="M30.6,10.2c0.1-5.6-4.5-9.8-10.8-9.8H6.8c-0.6,0-1.2,0.5-1.3,1.1L0.3,34.1c-0.1,0.6,0.3,1.1,0.9,1.2
	c0.1,0,0.1,0,0.2,0h7.7l-1.2,7.6c-0.1,0.6,0.3,1.1,0.9,1.2c0.1,0,0.1,0,0.2,0h6.3c0.3,0,0.6-0.1,0.8-0.3c0.2-0.2,0.3-0.5,0.3-0.8
	l1.9-10.9c0-0.3,0.2-0.7,0.4-0.9c0.2-0.2,0.4-0.3,0.7-0.3h3.9c6.2,0,11.4-4.4,12.4-10.5C36.2,16.1,34.4,12.1,30.6,10.2L30.6,10.2z"
	/>
<path class="st0" d="M10.7,23.2L8.8,35.5l-1.2,7.7c-0.1,0.6,0.3,1.1,0.9,1.2c0.1,0,0.1,0,0.2,0h6.7c0.6,0,1.2-0.5,1.3-1.1l1.8-11.1
	c0.1-0.6,0.6-1.1,1.3-1.1h3.9c6.2,0,11.4-4.5,12.4-10.6c0.7-4.3-1.5-8.3-5.2-10.2c0,0.5,0,0.9-0.1,1.4c-1,6.1-6.2,10.6-12.4,10.6H12
	C11.4,22.2,10.8,22.6,10.7,23.2"/>
<path class="st1" d="M8.8,35.5H1c-0.6,0-1-0.5-1-1c0-0.1,0-0.1,0-0.2L5.2,1.1C5.3,0.5,5.9,0,6.5,0h13.3c6.3,0,10.9,4.6,10.8,10.2
	c-1.6-0.8-3.4-1.3-5.4-1.3H14.1c-0.6,0-1.2,0.5-1.3,1.1l-2.1,13.3L8.8,35.5L8.8,35.5z"/>
</svg>
