<svg width="13" height="16" viewBox="0 0 13 16" fill="none" xmlns="http://www.w3.org/2000/svg">
    <path d="M6.718 0C2.33 0 0 2.81 0 5.875c0 1.42.794 3.193 2.065 3.755.363.163.315-.036.627-1.23a.283.283 0 0 0-.068-.277C.807 6.02 2.27 1.699 6.458 1.699c6.063 0 4.93 8.389 1.055 8.389-.999 0-1.743-.785-1.507-1.755.285-1.155.844-2.397.844-3.23 0-2.098-3.127-1.787-3.127.994 0 .86.304 1.44.304 1.44L2.834 12.36c-.316 1.285.043 3.366.074 3.545.02.099.13.13.192.049.1-.13 1.316-1.865 1.656-3.12l.633-2.31c.335.606 1.302 1.113 2.332 1.113C10.785 11.637 13 8.943 13 5.6 12.99 2.397 10.247 0 6.718 0z" fill="#231F20"/>
</svg>
