<svg width="33" height="33" viewBox="0 0 33 33" fill="none" xmlns="http://www.w3.org/2000/svg">
    <path fill-rule="evenodd" clip-rule="evenodd" d="m32.965 17.58-.998-.064a15.74 15.74 0 0 0 0-2.032l.998-.064a16.732 16.732 0 0 1 0 2.16zm-.28-4.3-.98.194a15.406 15.406 0 0 0-.523-1.958l.946-.322c.23.677.417 1.373.558 2.086zM31.303 9.2l-.897.444c-.3-.609-.64-1.195-1.015-1.755l.83-.557c.4.597.762 1.22 1.082 1.869zm-2.396-3.58-.752.66a15.608 15.608 0 0 0-1.434-1.434l.66-.752c.54.475 1.05.985 1.526 1.527zm-3.238-2.84-.557.83a15.479 15.479 0 0 0-1.755-1.015l.443-.897c.648.32 1.272.682 1.869 1.081zM21.806.871l-.322.947a15.38 15.38 0 0 0-1.958-.524l.194-.98c.713.14 1.41.327 2.086.557zM17.58.035l-.064.998a15.747 15.747 0 0 0-2.032 0L15.42.035a16.75 16.75 0 0 1 2.16 0zm-4.3.28.194.98a15.38 15.38 0 0 0-1.958.524l-.322-.947c.677-.23 1.373-.417 2.086-.558zM9.2 1.697l.444.897c-.609.3-1.195.64-1.755 1.015l-.557-.83c.597-.4 1.22-.762 1.869-1.082zM5.62 4.094l.66.752c-.508.446-.988.926-1.434 1.434l-.752-.66c.475-.54.985-1.05 1.527-1.526zM2.78 7.332l.83.557a15.48 15.48 0 0 0-1.015 1.755L1.698 9.2c.32-.648.682-1.272 1.081-1.869zM.871 11.194l.947.322a15.38 15.38 0 0 0-.524 1.958l-.98-.194c.14-.713.327-1.41.557-2.086zM.035 15.42a16.75 16.75 0 0 0 0 2.16l.998-.064a15.747 15.747 0 0 1 0-2.032l-.998-.064zm.28 4.3.98-.194c.132.67.308 1.323.524 1.958l-.947.322a16.379 16.379 0 0 1-.558-2.086zm1.383 4.08.897-.444c.3.609.64 1.195 1.015 1.755l-.83.557c-.4-.597-.762-1.22-1.082-1.869zm2.396 3.58.752-.66c.446.508.926.988 1.434 1.434l-.66.752a16.604 16.604 0 0 1-1.526-1.527zm3.238 2.84.557-.83c.56.375 1.146.715 1.755 1.015l-.443.897a16.476 16.476 0 0 1-1.869-1.081zm3.862 1.908.322-.947c.635.216 1.289.392 1.958.524l-.194.98a16.379 16.379 0 0 1-2.086-.557zm4.226.837.064-.998a15.74 15.74 0 0 0 2.032 0l.064.998a16.732 16.732 0 0 1-2.16 0zm4.3-.28-.194-.98c.67-.132 1.323-.308 1.958-.523l.322.946c-.677.23-1.373.417-2.086.558zm4.08-1.383-.444-.897c.609-.3 1.195-.64 1.755-1.015l.557.83c-.597.4-1.22.762-1.869 1.082zm3.58-2.396-.66-.752a15.61 15.61 0 0 0 1.434-1.434l.752.66a16.606 16.606 0 0 1-1.527 1.526zm2.84-3.238-.83-.557c.375-.56.715-1.146 1.015-1.755l.897.443a16.48 16.48 0 0 1-1.081 1.869zm1.908-3.862-.947-.322c.216-.635.392-1.289.524-1.958l.98.194a16.379 16.379 0 0 1-.557 2.086z" fill="var(--gray)"/>
    <path fill-rule="evenodd" clip-rule="evenodd" d="M17.125 10a.5.5 0 0 0-1 0v5.875H10.25a.5.5 0 0 0 0 1h5.875v5.875a.5.5 0 0 0 1 0v-5.875H23a.5.5 0 0 0 0-1h-5.875V10z" fill="#000"/>
</svg>