<?xml version="1.0" encoding="utf-8"?>
<!-- Generator: Adobe Illustrator 24.1.2, SVG Export Plug-In . SVG Version: 6.00 Build 0)  -->
<svg version="1.1" id="Layer_1" xmlns="http://www.w3.org/2000/svg" xmlns:xlink="http://www.w3.org/1999/xlink" x="0px" y="0px"
	 viewBox="0 0 388.2 132" style="enable-background:new 0 0 388.2 132;" xml:space="preserve">
<style type="text/css">
	.st0{fill:#010101;}
	.st1{fill:#010101;fill-opacity:0.6;}
	.st2{fill:#94BF47;}
	.st3{fill:#5F8F3E;}
	.st4{fill:#FFFFFF;}
	.st5{fill:#D3D1CD;}
</style>
<g>
	<path class="st0" d="M188.4,40.1c-2.6-1.4-4-2.6-4-4.3c0-2.1,1.9-3.4,4.8-3.4c3.4,0,6.4,1.4,6.4,1.4l2.4-7.3c0,0-2.2-1.7-8.7-1.7
		c-9,0-15.3,5.2-15.3,12.5c0,4.1,2.9,7.3,6.8,9.5c3.1,1.8,4.3,3.1,4.3,4.9c0,2-1.6,3.5-4.5,3.5c-4.4,0-8.5-2.3-8.5-2.3l-2.6,7.3
		c0,0,3.8,2.6,10.2,2.6c9.3,0,16-4.6,16-12.8C195.8,45.5,192.5,42.4,188.4,40.1z M225.5,24.6c-4.6,0-8.2,2.2-11,5.5l-0.1-0.1l4-20.8
		H208l-10.1,52.9h10.4l3.4-18.1c1.4-6.8,4.9-11,8.2-11c2.3,0,3.2,1.6,3.2,3.8c0,1.4-0.1,3.2-0.5,4.6l-3.9,20.7h10.4l4-21.4
		c0.5-2.2,0.7-4.5,0.8-6.8C233.9,28.1,230.9,24.6,225.5,24.6z M257.3,24.6c-12.5,0-20.7,11.3-20.7,23.8c0,8,5,14.5,14.3,14.5
		c12.2,0,20.5-10.9,20.5-23.8C271.4,31.7,267,24.6,257.3,24.6z M252.2,54.9c-3.5,0-5-3-5-6.8c0-5.9,3.1-15.6,8.7-15.6
		c3.7,0,4.9,3.2,4.9,6.2C260.8,45.2,257.7,54.9,252.2,54.9z M297.9,24.6c-7,0-11,6.2-11,6.2h-0.1l0.6-5.5h-9.1
		c-0.5,4.6-1.3,9.2-2.1,13.7l-7.2,37.9h10.4l2.9-15.3h0.2c0,0,2.1,1.3,6.1,1.3c12.1,0,20.1-12.4,20.1-25
		C308.5,30.8,305.4,24.6,297.9,24.6z M287.9,55.1c-2.7,0-4.3-1.5-4.3-1.5l1.7-9.7c1.2-6.4,4.6-10.7,8.2-10.7c3.1,0,4.1,2.9,4.1,5.7
		C297.7,45.5,293.7,55.1,287.9,55.1L287.9,55.1z M323.3,9.8c-3.3,0-5.9,2.6-5.9,6c0,3.1,2,5.2,4.9,5.2h0.1c3.2,0,6-2.2,6.1-6
		C328.5,11.9,326.4,9.8,323.3,9.8z M308.8,62.1h10.4l7-36.7h-10.4L308.8,62.1z M352.5,25.4h-7.2l0.4-1.7c0.6-3.5,2.7-6.7,6.1-6.7
		c1.8,0,3.3,0.5,3.3,0.5l2-8.1c0,0-1.8-0.9-5.6-0.9c-3.7,0-7.4,1-10.1,3.5c-3.5,3-5.2,7.3-6,11.7l-0.3,1.7h-4.8l-1.5,7.8h4.8
		l-5.5,29h10.4l5.5-28.9h7.1C351.1,33.2,352.5,25.4,352.5,25.4z M377.4,25.4c0,0-6.5,16.3-9.4,25.2h-0.1c-0.2-2.9-2.5-25.2-2.5-25.2
		h-10.9l6.2,33.7c0.1,0.8,0.1,1.2-0.2,1.7c-1.2,2.3-3.2,4.6-5.6,6.2c-2,1.4-4.1,2.3-5.8,2.9l2.9,8.8c2.1-0.4,6.5-2.2,10.1-5.6
		c4.7-4.4,9.1-11.3,13.6-20.6l12.7-27.2L377.4,25.4L377.4,25.4z"/>
	<path class="st1" d="M221.4,114.3c0-5.9-3.7-8-9.9-9.5c-4.6-1.1-5.7-2.2-5.7-4.5c0-2.3,1.6-3.7,4.6-3.7c2.8,0,4.5,1.6,5,4.2
		l5.3-0.7c-0.7-4.5-4.1-7.8-10.3-7.8c-6.1,0-10.1,3.5-10.1,8.4c0,5.3,3.1,7.7,9.5,9.2c4.4,1.1,5.9,2.2,5.9,4.9c0,2.5-2,4.3-5,4.3
		c-3.9,0-5.3-2.4-5.8-5.2l-5.5,0.7c0.7,4.6,4.1,8.8,11.2,8.8C217.3,123.5,221.4,119.6,221.4,114.3z M228.7,123h18.8v-4.5h-13.1v-8.9
		h10v-4.3h-10v-8.1h12.4v-4.5h-18.1V123L228.7,123z M277.7,113.6l-5.4-0.8c-0.5,3.1-2.6,6-6.5,6c-4.5,0-7-3.3-7-9.3v-3.3
		c0-6,2.7-9.3,7-9.3c3.5,0,5.4,2.3,5.9,5.7l5.8-0.8c-0.7-5.4-4.6-9.5-11.6-9.5c-7.4,0-13,5.4-13,13.9v3.2c0,8.6,4.8,14,13,14
		C273.5,123.5,277,118,277.7,113.6z M301.3,92.7v19c0,5.3-1.9,7.2-5.7,7.2c-4,0-5.6-2.1-5.6-6.9V92.7h-5.8v19.6
		c0,7.4,4.2,11.2,11.3,11.2c7.5,0,11.6-4,11.6-11.4V92.7L301.3,92.7L301.3,92.7z M315.4,123h5.7v-12.4h3.9l6.9,12.4h6.2l-7.5-13.3
		c3.4-1,6-3.2,6-7.7v-0.6c0-6-4.2-8.6-10.8-8.6h-10.3L315.4,123L315.4,123z M321.2,106.6v-9.5h4.5c3.3,0,5.2,1.1,5.2,4.3v0.6
		c0,3.1-1.8,4.5-5.2,4.5C325.7,106.6,321.2,106.6,321.2,106.6z M344.4,123h18.8v-4.5h-13.1v-8.9h10v-4.3h-10v-8.1h12.4v-4.5h-18.1
		L344.4,123L344.4,123z"/>
</g>
<g>
	<path class="st2" d="M90.8,32c-0.1-0.5-0.5-0.9-1-1c-0.4,0-8.8-0.2-8.8-0.2s-7-6.8-7.7-7.5s-2.1-0.5-2.6-0.3l-3.5,1.1
		c-0.4-1.4-1-2.8-1.7-4.1c-2.5-4.8-6.1-7.3-10.5-7.3h0c-0.3,0-0.6,0-0.9,0.1c-0.1-0.2-0.3-0.3-0.4-0.5c-1.9-2-4.4-3-7.3-3
		C40.6,9.6,35,13.7,30.4,21c-3.2,5.1-5.7,11.6-6.4,16.6l-11.2,3.5c-3.3,1-3.4,1.1-3.8,4.3c-0.3,2.3-9,69.1-9,69.1l72.3,12.5
		l31.4-7.8C103.7,119.1,90.9,32.6,90.8,32L90.8,32z M63.6,25.3L58,27.1c-0.1-2.9-0.4-6.9-1.7-10.4C60.6,17.5,62.7,22.4,63.6,25.3z
		 M54.2,28.2L42.1,32c1.2-4.5,3.4-8.9,6.1-11.8c1-1.1,2.4-2.3,4.1-3C53.9,20.4,54.2,25.1,54.2,28.2z M46.5,13.2
		c1.3,0,2.5,0.3,3.4,0.9c-1.5,0.8-3,2-4.4,3.4c-3.6,3.9-6.4,9.9-7.5,15.7L28,36.3C30,27.2,37.7,13.5,46.5,13.2z"/>
	<path class="st3" d="M89.8,31.1C86.9,31,83.9,31,81,30.9c0,0-7-6.8-7.7-7.5c-0.3-0.3-0.6-0.4-1-0.5v103.9l31.3-7.8
		c0,0-12.8-86.5-12.9-87.1C90.7,31.5,90.3,31.1,89.8,31.1L89.8,31.1z"/>
	<path class="st4" d="M55,47.2l-3.6,13.6c0,0-4.1-1.8-8.9-1.5c-7.1,0.4-7.1,4.9-7.1,6c0.4,6.1,16.4,7.4,17.3,21.7
		c0.7,11.2-6,18.9-15.6,19.5c-11.5,0.7-17.9-6.1-17.9-6.1l2.4-10.4c0,0,6.4,4.8,11.5,4.5c3.3-0.2,4.5-2.9,4.4-4.8
		c-0.5-7.9-13.6-7.5-14.4-20.5c-0.7-11,6.5-22.1,22.4-23.1C51.8,45.6,55,47.2,55,47.2L55,47.2z"/>
</g>
<path class="st5" d="M136.7,0h4.7v132h-4.7V0z"/>
</svg>
