<?xml version="1.0" encoding="utf-8"?>
<!-- Generator: Adobe Illustrator 24.1.2, SVG Export Plug-In . SVG Version: 6.00 Build 0)  -->
<svg version="1.1" id="Layer_1" xmlns="http://www.w3.org/2000/svg" xmlns:xlink="http://www.w3.org/1999/xlink" x="0px" y="0px"
	 viewBox="0 0 42 42" style="enable-background:new 0 0 42 42;" xml:space="preserve">
<path d="M37,0H5C2.2,0,0,2.2,0,5v32c0,2.8,2.2,5,5,5h32c2.8,0,5-2.2,5-5V5C42,2.2,39.8,0,37,0z M33,18.3c-0.2,0-0.5,0-0.7,0
	c-2.6,0-4.9-1.3-6.3-3.4c0,5.3,0,11.4,0,11.5c0,4.7-3.8,8.5-8.5,8.5S9,31.2,9,26.5s3.8-8.5,8.5-8.5c0.2,0,0.4,0,0.5,0v4.2
	c-0.2,0-0.3-0.1-0.5-0.1c-2.4,0-4.4,1.9-4.4,4.4s1.9,4.4,4.4,4.4S22,29,22,26.6c0-0.1,0-19.6,0-19.6h4c0.4,3.6,3.3,6.4,6.9,6.7V18.3
	z"/>
</svg>
