<svg width="17" height="15" viewBox="0 0 17 15" fill="none" xmlns="http://www.w3.org/2000/svg">
    <path d="M16.984 2.486a7.259 7.259 0 0 1-2.006.55 3.462 3.462 0 0 0 1.532-1.924 6.959 6.959 0 0 1-2.208.842 3.48 3.48 0 0 0-6.023 2.381c0 .276.023.542.08.794a9.855 9.855 0 0 1-7.176-3.642 3.487 3.487 0 0 0 1.07 4.654 3.439 3.439 0 0 1-1.574-.429v.038a3.498 3.498 0 0 0 2.79 3.422 3.475 3.475 0 0 1-.913.114c-.223 0-.448-.013-.66-.06a3.515 3.515 0 0 0 3.254 2.426 6.996 6.996 0 0 1-4.317 1.485c-.285 0-.56-.012-.833-.047a9.803 9.803 0 0 0 5.341 1.562c6.408 0 9.91-5.307 9.91-9.908a8.92 8.92 0 0 0-.012-.45 6.948 6.948 0 0 0 1.745-1.808z" fill="#231F20"/>
</svg>
